<svg xmlns="http://www.w3.org/2000/svg" width="300" height="300" viewBox="0 0 300 300">
  <!-- Left AirPod -->
  <path d="M80,150 C80,120 90,100 120,90 C140,85 150,100 150,120 L150,180 C150,200 140,190 120,185 C90,175 80,180 80,150 Z" fill="#ffffff" stroke="#ddd" stroke-width="1"/>
  <rect x="120" y="90" width="10" height="95" rx="5" ry="5" fill="#eee" stroke="#ddd" stroke-width="1"/>
  
  <!-- Right AirPod -->
  <path d="M220,150 C220,120 210,100 180,90 C160,85 150,100 150,120 L150,180 C150,200 160,190 180,185 C210,175 220,180 220,150 Z" fill="#ffffff" stroke="#ddd" stroke-width="1"/>
  <rect x="170" y="90" width="10" height="95" rx="5" ry="5" fill="#eee" stroke="#ddd" stroke-width="1"/>
  
  <!-- Charging Case -->
  <rect x="100" y="200" width="100" height="60" rx="30" ry="30" fill="#ffffff" stroke="#ddd" stroke-width="1"/>
  <line x1="100" y1="230" x2="200" y2="230" stroke="#eee" stroke-width="1"/>
  <circle cx="185" cy="215" r="3" fill="#eee"/>
  
  <!-- Text Label -->
  <text x="150" y="280" font-family="Arial, sans-serif" font-size="16" fill="#555" text-anchor="middle">AirPods (2nd generation)</text>
</svg> 