<svg xmlns="http://www.w3.org/2000/svg" width="60" height="60" viewBox="0 0 60 60">
  <circle cx="30" cy="30" r="28" fill="#FF2D55"/>
  <path d="M20,26 L24,26 L24,22 L28,22 L28,26 L32,26 L32,30 L28,30 L28,34 L24,34 L24,30 L20,30 L20,26 Z" fill="white"/>
  <circle cx="42" cy="24" r="3" fill="white"/>
  <circle cx="42" cy="32" r="3" fill="white"/>
  <path d="M15,20 C12.2,20 10,22.2 10,25 L10,35 C10,37.8 12.2,40 15,40 L45,40 C47.8,40 50,37.8 50,35 L50,25 C50,22.2 47.8,20 45,20 L15,20 Z M15,22 L45,22 C46.7,22 48,23.3 48,25 L48,35 C48,36.7 46.7,38 45,38 L15,38 C13.3,38 12,36.7 12,35 L12,25 C12,23.3 13.3,22 15,22 Z" fill="white"/>
</svg> 