<svg xmlns="http://www.w3.org/2000/svg" width="30" height="30" viewBox="0 0 30 30">
  <path d="M24.5,16.7c0-3,2.5-4.5,2.6-4.6c-1.4-2.1-3.6-2.4-4.4-2.4c-1.9-0.2-3.6,1.1-4.6,1.1c-0.9,0-2.4-1.1-3.9-1
    c-2,0-3.9,1.2-4.9,3c-2.1,3.6-0.5,9,1.5,11.9c1,1.5,2.2,3.1,3.8,3c1.5-0.1,2.1-1,3.9-1c1.8,0,2.4,1,4,1c1.6,0,2.7-1.5,3.7-3
    c1.2-1.7,1.6-3.3,1.7-3.4C27.9,21.3,24.5,20.3,24.5,16.7z M21.4,8.2c0.8-1,1.4-2.4,1.2-3.8c-1.2,0-2.6,0.8-3.5,1.8
    c-0.8,0.9-1.4,2.3-1.2,3.7C19.1,10,20.5,9.2,21.4,8.2z" 
    fill="#ffffff"/>
</svg> 