<svg xmlns="http://www.w3.org/2000/svg" viewBox="0 0 24 24" width="24" height="24">
  <path d="M20.067 8.307a3.34 3.34 0 0 0-.386-2.691A3.832 3.832 0 0 0 16.507 4H9.545a.731.731 0 0 0-.72.616L6.748 17.941a.437.437 0 0 0 .432.505h3.207l-.156.98a.369.369 0 0 0 .365.425h2.999a.607.607 0 0 0 .6-.512l.025-.126.476-3.024.031-.163a.607.607 0 0 1 .6-.512h.375c2.455 0 4.377-1 4.937-3.886.235-1.208.114-2.218-.572-2.922z" fill="#0070ba"/>
  <path d="M9.252 8.148a.607.607 0 0 1 .6-.512h3.761c.445 0 .86.03 1.24.09a4.554 4.554 0 0 1 .666.144 3.458 3.458 0 0 1 .548.226 3.339 3.339 0 0 0-.386-2.691A3.831 3.831 0 0 0 12.507 4H5.545a.731.731 0 0 0-.72.616L2.748 17.941a.437.437 0 0 0 .432.505h3.207l.807-5.123.058-.386z" fill="#003087"/>
</svg> 